<svg width="15" height="15" viewBox="0 0 15 15" fill="none" xmlns="http://www.w3.org/2000/svg">
<path d="M14.4387 14.4927C13.6904 15.1691 12.4776 15.1691 11.7309 14.4927L7.50082 10.1227L3.2707 14.4913C2.52234 15.1677 1.30963 15.1677 0.562867 14.4913C-0.185496 13.8148 -0.185496 12.7187 0.562867 12.0438L4.9637 7.5007L0.561275 2.95478C-0.187091 2.27838 -0.187091 1.18371 0.561275 0.507309C1.30963 -0.169103 2.52074 -0.169103 3.2691 0.507309L7.50082 4.87875L11.7309 0.507309C12.4793 -0.169103 13.6904 -0.169103 14.4387 0.507309C15.1871 1.18371 15.1871 2.27981 14.4387 2.95478L10.0379 7.5007L14.4387 12.0438C15.1871 12.7202 15.1871 13.8163 14.4387 14.4927Z" fill="#405169" fill-opacity="0.6"/>
</svg>
