<svg width="14" height="22" viewBox="0 0 14 22" fill="none" xmlns="http://www.w3.org/2000/svg">
<path fill-rule="evenodd" clip-rule="evenodd" d="M13.0616 10.3515L3.64473 1.11945C3.42693 0.905754 3.13618 0.788025 2.82617 0.788025C2.51615 0.788025 2.22541 0.905754 2.00761 1.11945L1.31412 1.79918C0.862857 2.24209 0.862857 2.96196 1.31412 3.4042L9.22172 11.1567L1.30534 18.9179C1.08754 19.1316 0.967285 19.4165 0.967285 19.7202C0.967285 20.0243 1.08754 20.3092 1.30534 20.5231L1.99883 21.2026C2.2168 21.4163 2.50738 21.5341 2.81739 21.5341C3.12741 21.5341 3.41815 21.4163 3.63595 21.2026L13.0616 11.9621C13.2799 11.7478 13.3999 11.4615 13.3992 11.1573C13.3999 10.8518 13.2799 10.5657 13.0616 10.3515Z" fill="#262332"/>
</svg>
