<svg width="14" height="22" viewBox="0 0 14 22" fill="none" xmlns="http://www.w3.org/2000/svg">
<path fill-rule="evenodd" clip-rule="evenodd" d="M1.28335 10.3515L10.7002 1.11945C10.918 0.905754 11.2088 0.788025 11.5188 0.788025C11.8288 0.788025 12.1196 0.905754 12.3374 1.11945L13.0309 1.79918C13.4821 2.24209 13.4821 2.96196 13.0309 3.4042L5.12326 11.1567L13.0396 18.9179C13.2574 19.1316 13.3777 19.4165 13.3777 19.7202C13.3777 20.0243 13.2574 20.3092 13.0396 20.5231L12.3461 21.2026C12.1282 21.4163 11.8376 21.5341 11.5276 21.5341C11.2176 21.5341 10.9268 21.4163 10.709 21.2026L1.28335 11.9621C1.06503 11.7478 0.945118 11.4615 0.945804 11.1573C0.945118 10.8518 1.06503 10.5657 1.28335 10.3515Z" fill="#262332"/>
</svg>
